<?xml version="1.0" encoding="UTF-8" standalone="no"?>
<!-- Created with Inkscape (http://www.inkscape.org/) -->

<svg
   width="210mm"
   height="297mm"
   viewBox="0 0 210 297"
   version="1.1"
   id="svg5"
   inkscape:version="1.1 (c68e22c387, 2021-05-23)"
   sodipodi:docname="Nafnspjald.svg"
   xmlns:inkscape="http://www.inkscape.org/namespaces/inkscape"
   xmlns:sodipodi="http://sodipodi.sourceforge.net/DTD/sodipodi-0.dtd"
   xmlns="http://www.w3.org/2000/svg"
   xmlns:svg="http://www.w3.org/2000/svg">
  <sodipodi:namedview
     id="namedview7"
     pagecolor="#ffffff"
     bordercolor="#666666"
     borderopacity="1.0"
     inkscape:pageshadow="2"
     inkscape:pageopacity="0.0"
     inkscape:pagecheckerboard="0"
     inkscape:document-units="mm"
     showgrid="true"
     showborder="false"
     inkscape:zoom="3.7946874"
     inkscape:cx="203.96937"
     inkscape:cy="288.56132"
     inkscape:window-width="2560"
     inkscape:window-height="1506"
     inkscape:window-x="-11"
     inkscape:window-y="-11"
     inkscape:window-maximized="1"
     inkscape:current-layer="text12754">
    <inkscape:grid
       type="xygrid"
       id="grid824"
       units="mm"
       spacingx="1"
       spacingy="1" />
  </sodipodi:namedview>
  <defs
     id="defs2">
    <rect
       x="-9.4488189"
       y="689.76378"
       width="218.50607"
       height="50.492936"
       id="rect5671" />
    <rect
       x="-109.62695"
       y="820.09391"
       width="353.12527"
       height="63.246317"
       id="rect40647" />
    <rect
       x="-108.57284"
       y="732.60317"
       width="687.27665"
       height="158.11579"
       id="rect6123" />
    <marker
       style="overflow:visible"
       id="Arrow1Lstart"
       refX="0.0"
       refY="0.0"
       orient="auto"
       inkscape:stockid="Arrow1Lstart"
       inkscape:isstock="true">
      <path
         transform="scale(0.8) translate(12.5,0)"
         style="fill-rule:evenodd;fill:context-stroke;stroke:context-stroke;stroke-width:1.0pt"
         d="M 0.0,0.0 L 5.0,-5.0 L -12.5,0.0 L 5.0,5.0 L 0.0,0.0 z "
         id="path851" />
    </marker>
    <rect
       x="-108.57284"
       y="732.60317"
       width="687.27665"
       height="158.11579"
       id="rect879" />
    <rect
       x="-108.57284"
       y="732.60317"
       width="687.27665"
       height="158.11579"
       id="rect885" />
    <rect
       x="-9.4488189"
       y="689.76378"
       width="218.50607"
       height="50.492936"
       id="rect5671-6" />
    <rect
       x="-109.62695"
       y="820.09391"
       width="353.12527"
       height="63.246317"
       id="rect40647-1" />
    <rect
       x="-108.57284"
       y="732.60317"
       width="687.27665"
       height="158.11579"
       id="rect6123-9" />
    <marker
       style="overflow:visible"
       id="Arrow1Lstart-7"
       refX="0.0"
       refY="0.0"
       orient="auto"
       inkscape:stockid="Arrow1Lstart"
       inkscape:isstock="true">
      <path
         transform="scale(0.8) translate(12.5,0)"
         style="fill-rule:evenodd;fill:context-stroke;stroke:context-stroke;stroke-width:1.0pt"
         d="M 0.0,0.0 L 5.0,-5.0 L -12.5,0.0 L 5.0,5.0 L 0.0,0.0 z "
         id="path851-4" />
    </marker>
    <meshgradient
       inkscape:collect="always"
       id="meshgradient2231"
       gradientUnits="userSpaceOnUse"
       x="45"
       y="207.5">
      <meshrow
         id="meshrow2233">
        <meshpatch
           id="meshpatch2235">
          <stop
             path="c 2.5,0  5,0  7.5,0"
             style="stop-color:#ffffff;stop-opacity:1"
             id="stop2237" />
          <stop
             path="c 0,6.66667  0,13.3333  0,20"
             style="stop-color:#800080;stop-opacity:1"
             id="stop2239" />
          <stop
             path="c -2.5,0  -5,0  -7.5,0"
             style="stop-color:#ffffff;stop-opacity:1"
             id="stop2241" />
          <stop
             path="c 0,-6.66667  0,-13.3333  0,-20"
             style="stop-color:#800080;stop-opacity:1"
             id="stop2243" />
        </meshpatch>
      </meshrow>
    </meshgradient>
    <rect
       x="-108.57284"
       y="732.60317"
       width="687.27665"
       height="158.11579"
       id="rect879-5" />
    <rect
       x="-108.57284"
       y="732.60317"
       width="687.27665"
       height="158.11579"
       id="rect885-9" />
  </defs>
  <g
     inkscape:label="Layer 1"
     inkscape:groupmode="layer"
     id="layer1">
    <rect
       style="fill:#ff0000;fill-opacity:0;fill-rule:evenodd;stroke:#000000;stroke-width:1.85342;stroke-miterlimit:4;stroke-dasharray:none;stroke-opacity:1;stroke-linejoin:round"
       id="rect848"
       width="83.146576"
       height="53.14658"
       x="5.4267139"
       y="45.916714" />
    <g
       inkscape:label="Lag 1"
       id="layer1-7"
       transform="translate(-32.775305,-161.16928)">
      <path
         style="fill:#000000;fill-rule:evenodd;stroke-width:4.98003"
         d=""
         id="path1756"
         transform="scale(0.26458333)" />
      <g
         id="g5116"
         transform="matrix(0.48598399,0,0,0.48598399,49.798099,121.25217)">
        <g
           id="g901"
           transform="rotate(0.16807906,67.035939,216.50248)">
          <g
             id="g1193"
             transform="matrix(0.43193195,0,0,0.43193195,33.142696,150.65369)">
            <g
               id="g1268"
               transform="matrix(0.60961229,0.79269973,0.79269973,-0.60961229,-187.08064,370.02832)"
               style="fill:#ff0000">
              <path
                 sodipodi:type="spiral"
                 style="fill:#ff0000;fill-rule:evenodd;stroke:#000000;stroke-width:11.3386;stroke-miterlimit:4;stroke-dasharray:none;stroke-dashoffset:0"
                 id="path34"
                 sodipodi:cx="396.8504"
                 sodipodi:cy="604.72443"
                 sodipodi:expansion="1"
                 sodipodi:revolution="3"
                 sodipodi:radius="389.58478"
                 sodipodi:argument="-19.738035"
                 sodipodi:t0="0"
                 d="m 396.8504,604.72443 c 12.31748,-15.15996 26.51233,9.12432 25.19684,20.47245 -3.56487,30.75273 -41.57092,39.56878 -66.14174,29.92123 -43.95143,-17.25722 -54.63409,-72.77211 -34.64562,-111.81104 29.33389,-57.2912 104.37709,-70.09202 157.48033,-39.37 70.77827,40.94761 85.714,136.12285 44.09439,203.14962 C 470.46057,791.43304 354.8995,808.50688 274.01568,755.90547 176.05455,692.19811 156.84067,556.1208 220.47252,461.41726 295.46046,349.81241 452.13,328.4569 560.63003,403.14971 685.89761,489.38551 709.39609,666.69551 623.62196,788.9765 526.15995,927.91994 328.17693,953.56252 192.12587,856.69283 39.497145,748.01967 11.709559,529.34061 119.68516,379.52744 239.55855,213.20644 478.95057,183.27308 642.51984,302.36235"
                 transform="matrix(-0.04019957,0.26151163,-0.26151163,-0.04019957,149.09569,150.52867)" />
            </g>
            <path
               sodipodi:type="spiral"
               style="fill:#0000ff;fill-rule:evenodd;stroke:#000000;stroke-width:11.3386;stroke-miterlimit:4;stroke-dasharray:none;stroke-dashoffset:0"
               id="path34-4"
               sodipodi:cx="396.8504"
               sodipodi:cy="604.72443"
               sodipodi:expansion="1"
               sodipodi:revolution="3"
               sodipodi:radius="389.58478"
               sodipodi:argument="-19.738035"
               sodipodi:t0="0"
               transform="matrix(-0.18967057,0.18447063,0.18447063,0.18967057,116.06548,39.124722)"
               d="m 396.8504,604.72443 c 12.31748,-15.15996 26.51233,9.12432 25.19684,20.47245 -3.56487,30.75273 -41.57092,39.56878 -66.14174,29.92123 -43.95143,-17.25722 -54.63409,-72.77211 -34.64562,-111.81104 29.33389,-57.2912 104.37709,-70.09202 157.48033,-39.37 70.77827,40.94761 85.714,136.12285 44.09439,203.14962 C 470.46057,791.43304 354.8995,808.50688 274.01568,755.90547 176.05455,692.19811 156.84067,556.1208 220.47252,461.41726 295.46046,349.81241 452.13,328.4569 560.63003,403.14971 685.89761,489.38551 709.39609,666.69551 623.62196,788.9765 526.15995,927.91994 328.17693,953.56252 192.12587,856.69283 39.497145,748.01967 11.709559,529.34061 119.68516,379.52744 239.55855,213.20644 478.95057,183.27308 642.51984,302.36235" />
            <path
               style="fill:url(#meshgradient2231);fill-opacity:1;stroke:#000000;stroke-width:0.264583px;stroke-linecap:butt;stroke-linejoin:miter;stroke-opacity:1"
               d="M 44.999999,227.5 52.5,207.5"
               id="path1358"
               sodipodi:nodetypes="cc" />
            <path
               style="fill:none;stroke:#000000;stroke-width:0.264583px;stroke-linecap:butt;stroke-linejoin:miter;stroke-opacity:1"
               d="m 50,217.5 c -0.30461,-0.12579 -0.926402,-0.048 -0.913831,-0.37737 0.02021,-0.5296 0.709099,-0.79725 0.976146,-1.25505 0.02162,-0.0371 0.271605,-1.24775 0.278897,-1.25504 0.118509,-0.11851 0.313653,-0.14803 0.418348,-0.2789 0.194792,-0.24349 0.231257,-0.58724 0.418349,-0.83669 0.138068,-0.18409 0.05909,-0.59798 0.418349,-0.41835 0.319095,0.15954 -0.731658,1.1325 -0.836698,1.25504 -0.406982,0.47481 -0.879824,0.8942 -1.255043,1.39449 -0.169195,0.2256 0.02495,0.4756 -0.418348,0.69725 -0.04158,0.0208 -0.03287,-0.10658 0,-0.13945 0.256712,-0.25671 0.604282,-0.41835 0.836697,-0.69724 1.366594,-2.39154 -0.07854,-0.20037 0.976143,-1.25505 0.03287,-0.0329 -0.11866,-0.0416 -0.139449,0 -0.08571,0.17142 -0.05374,0.38638 -0.139448,0.5578 -0.236265,0.47253 -0.768305,0.90775 -1.115595,1.25504 -0.03287,0.0329 0.103741,0.0298 0.139449,0 0.419462,-0.34955 1.255043,-1.19208 1.255043,-1.81284 0,-0.13225 -0.293023,0.40247 -0.557797,0.97615 -0.333941,0.72354 -0.836695,1.54753 -0.836695,2.37064 0,0.0465 -0.01336,-0.0949 0,-0.13946 0.126715,-0.42237 0.244639,-0.84972 0.418349,-1.25504 0.229431,-0.53534 0.537035,-1.03451 0.836694,-1.53394 0.0986,-0.16434 -0.03314,0.39833 -0.139448,0.5578 -0.109392,0.16409 -0.322575,0.24595 -0.418349,0.41834 -0.192873,0.34718 -0.13752,0.83477 -0.418348,1.1156 -0.03287,0.0329 -0.01886,-0.097 0,-0.13945 0.05493,-0.12359 1.115594,-1.90745 1.115594,-1.95229 0,-0.0657 -0.114165,0.0788 -0.139449,0.13945 -0.209256,0.50222 -0.314481,1.04731 -0.557797,1.53394 -0.751281,1.50257 -0.697246,0.47148 -0.697246,1.25505 0,0.0465 -0.01471,-0.0954 0,-0.13946 0.12559,-0.37676 0.214014,-0.77503 0.418349,-1.11559 0.220488,-0.36748 0.62076,-0.60597 0.836694,-0.97615 0.119428,-0.20472 0.100484,-0.46345 0.139449,-0.69724 0.0076,-0.0459 0.04648,-0.13945 0,-0.13945 -0.04648,0 0.0066,0.0934 0,0.13945 -0.03998,0.2799 -0.03444,0.57417 -0.139449,0.8367 -0.08632,0.21579 -0.323955,0.34541 -0.418348,0.55779 -0.07621,0.17148 0.06561,0.93923 -0.418346,0.69725 -0.07312,-0.0366 0.43017,-1.13924 0.557797,-1.3945 0.08819,-0.17639 0.418346,-0.61555 0.418346,-0.41834 0,0.25582 -0.697246,0.9247 -0.697246,1.39449 0,0.0465 -0.01278,-0.0947 0,-0.13945 0.08076,-0.28267 0.159502,-0.56805 0.2789,-0.8367 0.0801,-0.18021 0.418346,-0.61555 0.418346,-0.41834 0,0.70756 -0.557797,1.13975 -0.557797,1.81284 0,0.0465 -0.0076,-0.0936 0,-0.13945 0.196929,-1.18157 0.04601,-0.37091 0.418348,-1.11559 0.0208,-0.0416 -0.100771,-0.0258 -0.139448,0 -0.24765,0.16509 -0.503547,0.33181 -0.697246,0.55779 -0.211979,0.24731 -0.383617,0.88906 -0.836697,1.1156 -0.04158,0.0208 -0.02577,-0.10078 0,-0.13945 0.257842,-0.38676 0.578855,-0.72883 0.836697,-1.1156 0.300691,-0.45104 0.453385,-1.01118 0.836694,-1.39449 0.03287,-0.0329 0.02789,0.10226 0,0.13945 -1.334568,1.33457 0.249455,-0.37418 -0.557797,0.8367 -0.306022,0.45903 -0.751512,0.55138 -1.115594,0.97614 -0.202928,0.23675 -0.278898,0.5578 -0.418349,0.8367 -0.0294,0.0588 0.100007,-0.0869 0.139451,-0.13945 0.239917,-0.31989 0.426027,-0.68233 0.697246,-0.97615 1.888998,-1.61914 0.30847,-0.0859 1.394492,-1.53394 0.02789,-0.0372 0.0066,0.0934 0,0.13945 -0.03998,0.2799 -0.04435,0.57042 -0.139449,0.83669 -0.290205,0.81258 -0.753689,1.90578 -1.394491,2.51009 -0.03382,0.0319 -0.03031,-0.10421 0,-0.13945 C 49.554764,217.87822 49.833172,217.73832 50,217.5 c 0.455724,-0.65103 0.584417,-1.45727 1.177909,-2.05077 0.03287,-0.0329 0.02307,0.0991 0,0.13946 -0.166304,0.29102 -0.381937,0.55133 -0.557797,0.83669 C 50.403132,216.77746 50.413567,217.5 50,217.5 c -0.575892,0 0.726358,-1.57549 0.75956,-1.63242 0.0011,-0.002 0.581814,-1.27906 0.836698,-1.53394 0.03287,-0.0329 0.02307,0.0991 0,0.13945 -0.166304,0.29103 -0.336027,0.58536 -0.557798,0.8367 -0.478424,0.54221 -1.040553,1.00531 -1.533943,1.53394 -0.03782,0.0405 -0.677299,0.96625 -0.836697,0.97614 -0.402836,0.025 -0.778547,-0.21325 -1.16782,-0.31987"
               id="path985" />
            <path
               style="fill:none;stroke:#000000;stroke-width:0.264583px;stroke-linecap:butt;stroke-linejoin:miter;stroke-opacity:1"
               d="M 50.75956,214.75199 C 50,217.5 51.317358,211.61438 51.317358,211.61438"
               id="path1598" />
            <path
               style="fill:none;stroke:#000000;stroke-width:0.264583px;stroke-linecap:butt;stroke-linejoin:miter;stroke-opacity:1"
               d="m 48.110023,215.37951 2.649537,-0.62752"
               id="path1600" />
            <path
               style="fill:none;stroke:#000000;stroke-width:0.264583px;stroke-linecap:butt;stroke-linejoin:miter;stroke-opacity:1"
               d="m 81.229244,218.02905 4.532103,-9.41283"
               id="path1602" />
            <path
               style="fill:#000000;stroke:#000000;stroke-width:0.264583px;stroke-linecap:butt;stroke-linejoin:miter;stroke-opacity:1"
               d="m 81.92649,219.77217 -0.697246,-1.74312 1.515565,0.24759 2.807364,-6.03474"
               id="path1604" />
            <path
               style="fill:#000000;fill-opacity:1;fill-rule:evenodd;stroke-width:4.98003"
               d="m 309.56173,823.84896 c -0.9454,-0.16176 -1.48735,-0.37563 -1.41676,-0.55911 0.45172,-1.174 9.80345,-20.40908 9.88356,-20.32897 0.0559,0.0559 -0.31759,1.56193 -0.82994,3.34679 -1.33325,4.64468 -2.12069,7.68431 -3.19594,12.33685 -0.51921,2.24656 -1.0746,4.41077 -1.23419,4.80935 -0.32329,0.80737 -0.59872,0.84131 -3.20673,0.39509 z"
               id="path1680"
               transform="scale(0.26458333)" />
            <path
               style="fill:none;stroke:#000000;stroke-width:0.264583px;stroke-linecap:butt;stroke-linejoin:miter;stroke-opacity:1"
               d="m 83.457295,215.08341 c 0.0041,-0.0247 0.0058,-0.0498 0.01233,-0.0739 0.03875,-0.14445 0.09393,-0.28475 0.123257,-0.4314 0.03248,-0.1624 0.01614,-0.65228 0.06163,-0.49303 0.05316,0.18605 -0.01588,0.38697 -0.03698,0.57931 -0.01593,0.14503 -0.192675,0.3466 -0.07395,0.4314 0.10931,0.0781 0.07925,-0.26259 0.160234,-0.36977 0.06392,-0.0846 0.301901,-0.088 0.25884,-0.18489 -0.06925,-0.1558 -0.616075,0.29122 -0.579308,0.29582 0.595225,0.0744 0.563779,-0.55257 0.640934,-0.89978 0.04632,-0.20844 0.09968,-0.41639 0.123259,-0.62861 0.0096,-0.0861 0.05818,-0.23335 -0.02466,-0.25884 -0.36254,-0.11155 -0.35288,0.45586 -0.320469,0.56699 0.01463,0.0502 0.0824,-0.0671 0.110932,-0.11094 0.209437,-0.32163 0.277829,-0.54903 0.406747,-0.88745 0.0098,-0.0257 0.031,-0.047 0.03698,-0.0739 0.01074,-0.0483 0.0035,-0.0992 0.01233,-0.14791 0.02487,-0.13682 0.09546,-0.26748 0.110931,-0.40675 0.0028,-0.0248 -0.0069,-0.0495 -0.01233,-0.0739 -0.0028,-0.0127 -0.0011,-0.0435 -0.01233,-0.037 -0.165592,0.0966 -0.171788,0.19611 -0.221863,0.3821 -0.0053,0.0198 -0.01453,0.0762 0,0.0616 0.01767,-0.0177 0.0061,-0.0498 0.01233,-0.074 0.02665,-0.10328 0.05773,-0.20537 0.08628,-0.30814 0.01254,-0.0451 0.02053,-0.0917 0.03697,-0.13558 0.0043,-0.0115 0.0046,0.0255 0,0.037 -0.03687,0.0922 -0.09353,0.17644 -0.123256,0.27117 -0.03642,0.11609 -0.06356,0.23622 -0.07395,0.35744 -0.0024,0.0275 0.02397,0.0983 0.03697,0.074 0.116544,-0.21755 0.126653,-0.45052 0.234191,-0.66559"
               id="path1980" />
            <path
               style="fill:none;stroke:#000000;stroke-width:0.264583px;stroke-linecap:butt;stroke-linejoin:miter;stroke-opacity:1"
               d="m 85.207543,212.75386 c -0.02466,-0.008 -0.04797,-0.0242 -0.07395,-0.0247 -0.816147,0.017 -0.338577,0.0165 -1.047684,0 -0.02463,-5.3e-4 -0.04964,0.004 -0.07395,0 -0.0038,-5.3e-4 -0.0061,-0.0977 0.02466,-0.11093 0.01283,-0.006 0.147907,-0.0451 0.147907,-0.0493 0,-0.004 -0.0087,-0.002 -0.01233,0 -0.02963,0.0148 -0.06286,0.0259 -0.08628,0.0493 -0.0195,0.0195 -0.02347,0.0499 -0.03698,0.0739 -0.02349,0.0418 -0.05253,0.0804 -0.07396,0.12326 -0.06156,0.12313 -0.0644,0.26064 -0.07395,0.39442 -0.0019,0.0246 0.0048,0.0498 0,0.074 -0.0036,0.018 -0.02066,0.0314 -0.02466,0.0493 -0.0236,0.10621 0.01791,0.2253 0,0.33279 -0.01508,0.0904 -0.101674,0.14019 -0.147907,0.20954 -0.10313,0.15469 -0.180311,0.33369 -0.295818,0.4807 -0.02154,0.0274 -0.05461,0.045 -0.07395,0.0739 -0.01564,0.0234 -0.144148,0.36518 -0.14791,0.3821 -0.01339,0.0603 -0.0055,0.1235 -0.01233,0.18489 -0.03044,0.27391 -0.02535,0.0183 -0.03698,0.32046 -0.0058,0.15126 0.01161,0.30518 0,0.45606 -0.0044,0.0579 -0.02103,0.11457 -0.02466,0.17255 -0.0013,0.0199 0.0011,0.38582 0,0.41908 -0.0053,0.15874 -0.03698,0.30959 -0.03698,0.46838 0,0.0995 0.01233,0.19657 0.01233,0.29581 0,0.037 0,0.0739 0,0.11093 0,0.004 -0.0024,0.0157 0,0.0123 0.05291,-0.0794 0.01193,-0.0824 0.02466,-0.20953 0.0071,-0.0706 0.02225,-0.14016 0.03698,-0.20954 0.04289,-0.20219 0.100851,-0.40602 0.160234,-0.60396 0.01865,-0.0622 0.0519,-0.12066 0.06163,-0.18489 0.02474,-0.16331 -1.8e-4,-0.458 -0.0493,-0.61628 -0.0047,-0.0153 -0.07395,-0.13338 -0.07395,-0.18489 0,-0.004 7.94e-4,0.008 0,0.0123 -0.0075,0.0453 -0.0163,0.0904 -0.02466,0.13558 -0.07323,0.39543 -0.0077,-0.0139 -0.0493,0.44373 -0.09764,1.074 0.01537,-0.54937 -0.03698,0.62861 -0.02249,0.2025 -0.03081,0.24012 -0.03697,0.44373 -0.0031,0.10266 0.01135,0.20605 0,0.30814 -0.0056,0.0505 -0.03192,0.0973 -0.03698,0.1479 -0.0024,0.0245 0,0.0493 0,0.074 -0.0082,0.0329 -0.01908,0.0652 -0.02466,0.0986 -0.01281,0.0769 0.03358,0.29581 -0.08628,0.29581"
               id="path1982" />
            <path
               style="fill:none;stroke:#000000;stroke-width:0.264583px;stroke-linecap:butt;stroke-linejoin:miter;stroke-opacity:1"
               d="m 82.47124,219.69323 c 0.03698,-0.17667 0.0805,-0.3521 0.11093,-0.53001 0.02302,-0.13462 0.01788,-0.27384 0.0493,-0.40675 0.04914,-0.20791 0.175411,-0.39017 0.246515,-0.59163 0.0355,-0.10059 0.05541,-0.20604 0.08628,-0.30814 0.02257,-0.0746 0.05387,-0.14655 0.07395,-0.22187 0.0082,-0.0306 0.06233,-0.44302 0.03698,-0.46837 -0.0041,-0.004 -0.0097,0.007 -0.01233,0.0123 -0.03041,0.0608 -0.05156,0.12641 -0.08628,0.18488 -0.04365,0.0735 -0.10364,0.1364 -0.147907,0.20954 -0.137083,0.22649 -0.221631,0.51134 -0.443725,0.67791 -0.0033,0.002 -0.0026,-0.009 0,-0.0123 0.01453,-0.0181 0.03287,-0.0329 0.0493,-0.0493 0.01643,-0.0247 0.03222,-0.0498 0.0493,-0.0739 0.110731,-0.15687 0.230516,-0.30765 0.332793,-0.46838 0.02217,-0.0348 0.03832,-0.0948 0.07396,-0.12326 0.0064,-0.005 0.01643,0 0.02466,0 0.0041,0 -0.0089,-0.002 -0.01233,0 -0.131331,0.0876 -0.138708,0.28055 -0.184886,0.41908 -0.02779,0.0834 -0.05766,0.10486 -0.07395,0.19721 -0.0013,0.007 -0.01095,0.23871 0.01233,0.22186 0.03325,-0.0241 0.05912,-0.0569 0.08869,-0.0854"
               id="path1984" />
            <path
               style="fill:none;stroke:#000000;stroke-width:0.264583px;stroke-linecap:butt;stroke-linejoin:miter;stroke-opacity:1"
               d="m 81.941235,218.8181 c 0.01008,-0.17129 0.02466,-0.3916 0.02466,-0.55466 0,-0.27846 -0.07305,-0.0598 0.06163,-0.4807 0.03141,-0.0981 0.08363,-0.18837 0.123259,-0.28349 0.0047,-0.0114 0.0055,-0.026 0,-0.037 -0.01161,-0.0232 -0.01701,0.0491 -0.02466,0.074 -0.01744,0.0566 -0.202478,0.52684 -0.135583,0.56698 0.127058,0.0762 0.25691,0.0171 0.382095,-0.0247 0.02853,-0.01 0.133432,-0.0421 0.172561,-0.0616 0.0037,-0.002 -0.0082,0 -0.01233,0 -0.02466,0 -0.04978,-0.005 -0.07395,0 -0.03822,0.008 -0.07288,0.0285 -0.110932,0.037 -0.05413,0.012 -0.405784,0.0256 -0.431398,0 -0.0092,-0.009 -0.0072,-0.025 -0.01233,-0.037 -0.0072,-0.0169 -0.01884,-0.0319 -0.02466,-0.0493 -0.0026,-0.008 0.0037,-0.0173 0,-0.0247 -0.0019,-0.004 -0.0094,0.003 -0.01233,0 -0.0029,-0.003 0,-0.008 0,-0.0123 0,-0.008 0.0058,-0.0188 0,-0.0247 -0.0057,-0.006 -0.06316,-0.0123 -0.07395,-0.0123 -0.03615,0 -0.144039,0.0151 -0.172558,0.0247 -0.0209,0.007 -0.0347,0.0224 -0.0493,0.037 -0.03746,0.0375 -0.0191,0.0247 0.02466,0.0247"
               id="path1986" />
            <path
               style="fill:none;stroke:#000000;stroke-width:0.264583px;stroke-linecap:butt;stroke-linejoin:miter;stroke-opacity:1"
               d="m 82.606821,215.77365 c 0.03991,-0.067 -0.09675,-0.13867 -0.06163,-0.19721 0.0718,-0.11966 0.0013,0.0233 0.07395,-0.0493 0.03449,-0.0345 0.03518,-0.1302 0.0493,-0.17256 0.0047,-0.014 0.01881,-0.0234 0.02466,-0.037 0.0098,-0.023 -0.0016,-0.0532 0.01233,-0.0739 0.0051,-0.008 0.02053,-0.004 0.02466,-0.0123 0.02223,-0.0445 -0.02209,-0.0272 0.01233,-0.0616 0.07769,-0.0777 -0.0529,0.10341 0.06163,-0.0493 0.04762,-0.0169 0.02725,-0.0692 0.0493,-0.0986 0.0055,-0.007 0.01913,-0.005 0.02466,-0.0123 0.0078,-0.0104 0.0051,-0.0262 0.01233,-0.037 0.0097,-0.0145 0.02652,-0.023 0.03698,-0.037 0.01437,-0.0192 0.02106,-0.0437 0.03698,-0.0616 0.0049,-0.005 0.121356,-0.1028 0.135583,-0.11093 0.01471,-0.008 0.03459,-0.004 0.0493,-0.0123 0.01513,-0.009 0.02357,-0.0258 0.03697,-0.037 0.01842,-0.0153 0.04726,-0.0178 0.06163,-0.037 0.0078,-0.0104 0.0065,-0.0253 0.01233,-0.037 0.02929,-0.0586 0.06223,-0.13032 0.09861,-0.18489 0.01696,-0.0255 0.04315,-0.0309 0.0493,-0.0616 0.0024,-0.0121 -0.0055,-0.0259 0,-0.037 0.0041,-0.008 0.01876,-0.005 0.02466,-0.0123 0.135514,0.0179 0.02043,-0.0519 0.03698,-0.074 0.01045,-0.0139 0.02801,-0.022 0.03697,-0.037 0.01056,-0.0176 -0.0034,-0.0414 0,-0.0616 0.0068,-0.041 0.03653,-0.0726 0.0493,-0.11093 0.0031,-0.009 -0.0062,-0.0308 0,-0.037 0.0058,-0.006 0.0173,0.004 0.02466,0 0.0035,-0.002 0.0013,-0.18076 0.01233,-0.19721 0.0065,-0.01 0.0182,-0.015 0.02466,-0.0247 0.0076,-0.0114 -0.0045,-0.0359 0,-0.0493 0.0082,-0.0246 0.02877,-0.037 0.03698,-0.0616 0.0039,-0.0117 -0.003,-0.025 0,-0.037 0.005,-0.0199 0.02779,-0.0309 0.03697,-0.0493 0.03313,-0.0663 0.0493,-0.10383 0.0493,-0.17256"
               id="path1988" />
            <path
               style="fill:none;stroke:#000000;stroke-width:0.264583px;stroke-linecap:butt;stroke-linejoin:miter;stroke-opacity:1"
               d="m 84.011952,212.96339 c -0.0574,0.0859 -0.169884,0.15971 -0.209537,0.25884 -0.003,0.008 0.0058,0.0188 0,0.0247 -0.0092,0.009 -0.02658,0.005 -0.03698,0.0123 -0.03345,0.0251 -0.0254,0.0754 -0.03698,0.0986 -0.0019,0.004 -0.0094,-0.003 -0.01233,0 -0.01048,0.0105 -0.01643,0.0247 -0.02466,0.037 -0.01085,0.0162 -7.93e-4,0.0568 -0.01233,0.0739 -0.01106,0.0166 -0.05057,0.0327 -0.06163,0.0493 -0.01146,0.0172 0.01392,0.0282 -0.01233,0.037 -0.0078,0.003 -0.01884,-0.006 -0.02466,0 -0.0058,0.006 0.0037,0.0173 0,0.0247 -0.0019,0.004 -0.0094,-0.003 -0.01233,0 -0.01048,0.0105 -0.01704,0.0243 -0.02466,0.037 -0.0087,0.0145 -0.0029,0.0352 -0.01233,0.0493 -0.0065,0.01 -0.0182,0.015 -0.02466,0.0247 -0.0064,0.01 -0.0059,0.0397 -0.01233,0.0493 -0.0097,0.0145 -0.02918,0.0214 -0.03698,0.037 -0.0055,0.011 0.0039,0.0253 0,0.037 -0.01378,0.0414 -0.0561,0.0629 -0.07395,0.0986 -0.0055,0.011 0.0055,0.026 0,0.037 -0.0041,0.008 -0.01931,0.005 -0.02466,0.0123 -0.02135,0.0299 -0.01873,0.0782 -0.0493,0.0986 -0.0068,0.005 -0.01971,-0.007 -0.02466,0 -0.01016,0.0136 -0.0048,0.0342 -0.01233,0.0493 -0.01214,0.0243 -0.04949,0.0497 -0.06163,0.0739 -0.0085,0.0171 -0.0052,0.0437 -0.01233,0.0616 -0.01508,0.0377 -0.04101,0.043 -0.06163,0.074 -0.0094,0.0141 -0.0036,0.0348 -0.01233,0.0493 -0.01675,0.0279 -0.03028,0.0282 -0.03698,0.0616 -0.0024,0.0121 0.0068,0.0267 0,0.037 -0.0046,0.007 -0.0173,-0.004 -0.02466,0 -0.0057,0.003 0.0021,0.0407 0,0.0493 -0.04317,0.17267 0.02117,-0.0837 -0.03698,0.0616 -0.01439,0.036 -0.01233,0.11673 -0.01233,0.16024"
               id="path1990" />
            <path
               style="fill:none;stroke:#000000;stroke-width:0.264583px;stroke-linecap:butt;stroke-linejoin:miter;stroke-opacity:1"
               d="m 81.596118,217.98003 c -0.05341,-0.0247 -0.118642,-0.0324 -0.160237,-0.074 -0.01767,-0.0177 0.0044,-0.0503 0.01233,-0.0739 0.03716,-0.11147 0.02516,-0.038 0.06163,-0.11094 0.01037,-0.0208 0.0011,-0.0693 0.01233,-0.0863 0.0065,-0.01 0.0182,-0.015 0.02466,-0.0247 0.0068,-0.0102 0.0055,-0.0391 0.01233,-0.0493 0.03655,-0.0548 0.04124,-0.0152 0.07395,-0.037 0.0068,-0.005 -0.0046,-0.0178 0,-0.0247 0.03282,-0.0492 0.01347,0.003 0.03698,-0.0123 0.01233,-0.008 0.0265,-0.0142 0.03698,-0.0246 0.0029,-0.003 -0.0037,-0.0105 0,-0.0123 0.0092,-0.005 0.05448,0.007 0.06163,0 0.0058,-0.006 -0.0026,-0.0169 0,-0.0247 0.0065,-0.0193 0.04441,-0.0298 0.0493,-0.0493 0.003,-0.0119 -0.0068,-0.0267 0,-0.037 0.0046,-0.007 0.01884,0.006 0.02466,0 0.01482,-0.0148 -2.44e-4,-0.0449 0.01233,-0.0616 0.0055,-0.007 0.02053,-0.004 0.02466,-0.0123 0.01641,-0.0328 0.0044,-0.11245 0.01233,-0.14791 0.0077,-0.0345 0.02678,-0.0804 0.03697,-0.11093 0.0039,-0.0117 -0.0055,-0.026 0,-0.037 0.06395,-0.1279 0.167736,-0.23927 0.246515,-0.35744 0.0073,-0.011 0.03104,-0.14441 0.03698,-0.16024 0.0084,-0.0224 0.0294,-0.0389 0.03698,-0.0616 0.03163,-0.0949 -0.04646,0.0313 0.01233,-0.0863 0.01204,-0.0241 0.04777,-0.0385 0.06163,-0.0616 0.04765,-0.0794 -0.02981,0.006 0.03698,-0.074 0.01117,-0.0134 0.0299,-0.021 0.03698,-0.037 0.0016,-0.004 0.03441,-0.14739 0.03698,-0.16024 0.0075,-0.0375 0.046,-0.11995 0.07395,-0.14791 0.0029,-0.003 0.01048,0.004 0.01233,0 0.0132,-0.0264 0.01161,-0.0732 0.03698,-0.0986 0.0065,-0.007 0.01955,-0.005 0.02466,-0.0123 2.04e-4,-2.7e-4 0.01069,-0.0484 0.01233,-0.037 0.0047,0.0328 0.0082,0.0657 0.01233,0.0986"
               id="path1992" />
            <path
               style="fill:none;stroke:#000000;stroke-width:0.264583px;stroke-linecap:butt;stroke-linejoin:miter;stroke-opacity:1"
               d="m 83.716134,214.79992 c -0.02466,0.0657 -0.04506,0.13323 -0.07395,0.19721 -0.04881,0.1081 -0.129368,0.27732 -0.258839,0.32047 -0.0039,0.001 -0.0011,-0.008 0,-0.0123 0.01206,-0.0482 0.02159,-0.0546 0.06163,-0.0986 0.02344,-0.0258 0.04406,-0.056 0.07396,-0.0739 0.05366,-0.0322 0.114692,-0.0501 0.172559,-0.0739 0.01757,-0.007 0.0656,-0.004 0.0493,-0.037 -0.0019,-0.004 -0.0082,0 -0.01233,0 -0.02876,0 -0.05838,-0.007 -0.08628,0 -0.078,0.0195 -0.121581,0.0969 -0.172558,0.14791 -0.0029,0.003 -0.01233,-0.004 -0.01233,0 0,0.004 0.0082,0 0.01233,0 0.01643,0 0.03303,0.002 0.0493,0 0.07021,-0.01 0.138988,-0.0297 0.209537,-0.037 0.09808,-0.0102 0.19721,0 0.295815,0 0.0452,0 0.180779,0 0.135583,0"
               id="path1994" />
            <path
               style="fill:none;stroke:#000000;stroke-width:0.264583px;stroke-linecap:butt;stroke-linejoin:miter;stroke-opacity:1"
               d="m 84.443344,211.87886 c 0.02876,0.0246 0.05148,0.059 0.08629,0.0738 0.01132,0.005 0,-0.0247 0,-0.037 0,-0.0247 0,-0.0493 0,-0.074 0,-0.0534 0,-0.10682 0,-0.16023 0,-0.0367 -7.7e-5,-0.14775 0.01233,-0.17256 0.0019,-0.004 0.01103,0.004 0.01233,0 0.0039,-0.0117 0,-0.0247 0,-0.037 0,-0.004 0.0041,-0.0123 0,-0.0123 -0.0041,0 0.0029,0.009 0,0.0123 -0.07769,0.0777 0.0529,-0.1034 -0.06163,0.0493 -0.01437,0.0191 -0.02164,0.0432 -0.03698,0.0616 -0.0059,0.007 -0.01955,0.005 -0.02466,0.0123 -0.0046,0.007 0.0037,0.0173 0,0.0247 -0.0019,0.004 -0.0094,-0.003 -0.01233,0 -0.0064,0.006 0,0.0634 0,0.074 0,0.0192 0.0038,0.0568 0.01233,0.0739 0.01294,0.0259 0.0866,-0.038 0.07395,0 -0.01339,0.0402 -0.04109,0.074 -0.06164,0.11106"
               id="path1996" />
            <path
               style="fill:none;stroke:#000000;stroke-width:0.264583px;stroke-linecap:butt;stroke-linejoin:miter;stroke-opacity:1"
               d="m 81.596118,217.98003 c -0.01233,-0.004 -0.04109,-7e-5 -0.03698,-0.0124 0.01299,-0.039 0.04979,-0.0654 0.07395,-0.0986 0.102621,-0.1411 0.110932,0.15147 0.110932,0.22187 0,0.004 7.93e-4,-0.008 0,-0.0123 -0.0034,-0.0207 -0.0038,-0.0425 -0.01233,-0.0616 -0.0083,-0.0188 -0.02679,-0.0315 -0.03698,-0.0493 -0.01685,-0.0295 -0.0024,-0.0443 -0.03698,-0.0616 -0.01836,-0.009 0.0515,0.0348 0.03698,0.0493 -0.02394,0.024 -0.06574,0.0165 -0.0986,0.0247"
               id="path1998" />
            <path
               style="fill:none;stroke:#000000;stroke-width:0.264583px;stroke-linecap:butt;stroke-linejoin:miter;stroke-opacity:1"
               d="m 82.434252,218.18949 c -0.146569,-0.34204 -0.09366,-0.11053 0.110942,-0.69024 0.01297,-0.0367 0.04871,-0.1481 0.03698,-0.11093 -0.09801,0.31037 -0.213305,0.49922 -0.06163,0.85047 0.02492,0.0577 0.12237,0.0435 0.184885,0.037 0.171779,-0.0178 0.476846,-0.27318 0.554657,-0.41907 0.02957,-0.0555 0.03233,-0.12221 0.03698,-0.18489 0.02326,-0.31391 -0.38856,-0.58178 -0.640938,-0.35745 -0.224255,0.19934 -0.160231,0.6545 -0.160231,0.92443 0,0.004 -7.94e-4,-0.008 0,-0.0123 0.0034,-0.0207 0.01082,-0.0407 0.01233,-0.0616 0.0109,-0.15258 -0.0037,-0.28424 -0.110932,-0.40675 -0.104841,-0.11981 -0.396412,-0.25168 -0.554656,-0.17255 -0.03975,0.0199 -0.0599,0.0688 -0.07395,0.11093 -0.01564,0.0469 -0.01741,0.0987 -0.01233,0.1479 0.02961,0.2862 0.208176,0.52258 0.493027,0.59164 0.129759,0.0315 0.274465,0.0247 0.406746,0.0247 0.08839,0 0.157406,0.0275 0.221864,-0.037 0.05722,-0.0572 -0.05834,-0.0967 -0.133167,-0.14698"
               id="path2000" />
            <path
               style="fill:none;stroke:#000000;stroke-width:0.264583px;stroke-linecap:butt;stroke-linejoin:miter;stroke-opacity:1"
               d="m 50,217.5 c -0.0541,-0.0239 -0.248846,-0.16993 -0.356034,-0.0985 -0.01148,0.008 0.0104,0.0593 0,0.0697 -0.07097,0.071 -0.104587,0.0295 -0.104587,0.15688"
               id="path2002" />
            <path
               style="fill:none;stroke:#000000;stroke-width:0.264583px;stroke-linecap:butt;stroke-linejoin:miter;stroke-opacity:1"
               d="m 49.277912,217.87217 c 0.05229,-0.0349 0.102312,-0.0734 0.15688,-0.10459 0.04447,-0.0254 0.222218,-0.1002 0.2789,-0.15688 0.02318,-0.0232 0.03766,-0.12202 0.08716,-0.12202 0.02021,0 -0.02558,0.10731 -0.06973,0.12202 -0.0055,0.002 -0.0019,-0.0119 0,-0.0174 0.0084,-0.0253 0.08275,-0.20548 0.122018,-0.19174 0.05563,0.0195 0.09791,0.0657 0.14686,0.0985"
               id="path2004" />
            <path
               style="fill:none;stroke:#000000;stroke-width:0.264583px;stroke-linecap:butt;stroke-linejoin:miter;stroke-opacity:1"
               d="m 51.108183,215.4841 c 0.102217,-0.0243 0.171644,-0.0711 0.209175,-0.17431 0.01209,-0.0332 0.0062,-0.0711 0.01744,-0.10459 -0.01937,-0.0472 0.04311,-0.0422 0.0523,-0.0697 0.01561,-0.0468 0.0437,-0.10534 0.05229,-0.15689 0.0053,-0.0317 -0.01781,-0.11275 0,-0.13944 0.0072,-0.0108 0.02766,-0.007 0.03486,-0.0174 0.01508,-0.0226 0,-0.11114 0,-0.13945 0,-0.0233 0.0074,0.0477 0,0.0697 -0.0019,0.006 -0.01484,-0.005 -0.01744,0 -0.02262,0.0452 0.03532,0.0523 -0.03486,0.0523"
               id="path2006" />
            <path
               style="fill:none;stroke:#000000;stroke-width:0.264583px;stroke-linecap:butt;stroke-linejoin:miter;stroke-opacity:1"
               d="m 51.735706,212.85199 c -0.01979,0.0514 0.01741,0.12208 0,0.17431 -0.01071,0.0322 -0.04158,0.055 -0.05229,0.0872 -0.0055,0.0165 0.0042,0.0354 0,0.0523 -0.01445,0.0578 -0.103055,0.11742 -0.122018,0.17431 -0.02753,0.0826 -0.06339,0.17908 -0.104587,0.26147 -0.02471,0.0494 -0.06981,0.10484 -0.08716,0.15688 -0.0055,0.0165 0,0.0349 0,0.0523 -0.0058,0.0291 -0.007,0.0594 -0.01744,0.0872 -0.0074,0.0196 -0.02661,0.033 -0.03487,0.0523 -0.04612,0.10761 -0.05229,0.19528 -0.05229,0.31376 0,0.0417 -0.01773,0.24736 0,0.27889 0.04983,0.0886 0.104587,0.17434 0.156882,0.26151"
               id="path2008" />
            <path
               style="fill:none;stroke:#000000;stroke-width:0.264583px;stroke-linecap:butt;stroke-linejoin:miter;stroke-opacity:1"
               d="m 49.277912,217.87217 c 0.0581,0.0465 0.107757,0.10617 0.17431,0.13945 0.02029,0.0101 0.04936,-0.0784 0.0523,-0.0872 0.02469,-0.0741 -0.0552,0.0726 0.03486,-0.0174 0.0097,-0.01 0.004,-0.0456 0.01744,-0.0523 0.0104,-0.005 0.02842,0.01 0.03486,0 0.0045,-0.007 0.0011,-0.0964 0.01744,-0.10459 0.07437,-0.0372 0.007,0.0488 0.03486,-0.0349 0.0091,-0.0272 0.05826,-0.0408 0.06972,-0.0523 0.03756,-0.0376 0.04369,-0.11341 0.08716,-0.15688 0.01849,-0.0185 0.08941,-0.007 0.104587,-0.0174 0.0097,-0.006 -0.0052,-0.0245 0,-0.0349 0.0016,-0.003 0.07837,0.004 0.104584,-0.0174 0.03544,-0.0284 0.07624,-0.0517 0.104587,-0.0872 0.01148,-0.0143 0.0064,-0.0376 0.01744,-0.0523 0.0078,-0.0104 0.02766,-0.007 0.03486,-0.0174 0.0065,-0.01 -0.0097,-0.0284 0,-0.0349 0.0145,-0.01 0.03835,0.0104 0.05229,0 0.112432,-0.0843 -0.01204,-0.0255 0.01744,-0.0697 0.0324,-0.0486 0.0558,-0.0924 0.08715,-0.13945 0.02572,-0.0386 -0.0029,-0.11632 0.01744,-0.15688 0.0058,-0.0116 0.02905,-0.006 0.03486,-0.0174 0.009,-0.0181 0.01744,-0.27559 0.01744,-0.31376 0,-0.0369 -0.02109,-0.17754 0,-0.20918 0.02278,-0.0342 0.06251,-0.0543 0.08716,-0.0872 0.0035,-0.005 0,-0.0116 0,-0.0174 0.0058,-0.0116 0.0083,-0.0257 0.01744,-0.0349 0.02172,-0.0217 0.07065,-0.045 0.08716,-0.0697 0.0075,-0.0113 0.0083,-0.078 0.01744,-0.0872 0.0097,-0.01 0.04559,-0.004 0.05229,-0.0174 0.0052,-0.0104 0,-0.0232 0,-0.0349 0.01162,-0.006 0.02766,-0.007 0.03486,-0.0174 0.0065,-0.01 -0.0082,-0.0266 0,-0.0349 0.01299,-0.013 0.03759,-0.006 0.05229,-0.0174 0.0104,-0.008 0.0083,-0.0257 0.01744,-0.0349 0.0092,-0.009 0.02323,-0.0116 0.03486,-0.0174 0.01744,-0.0174 0.03689,-0.0331 0.05229,-0.0523 0.01148,-0.0143 0.0044,-0.0393 0.01744,-0.0523 0.01482,-0.0148 0.03888,-0.0188 0.0523,-0.0349 0.0383,-0.046 0.05126,-0.10903 0.08715,-0.15688 0.01479,-0.0197 0.04127,-0.0302 0.0523,-0.0523 0.0078,-0.0156 -0.01045,-0.0384 0,-0.0523 0.01103,-0.0147 0.0393,-0.004 0.05229,-0.0174 0.0071,-0.007 0.01034,-0.08 0.01744,-0.0872 0.01299,-0.013 0.04053,-0.003 0.05229,-0.0174 0.04312,-0.0517 0.03319,-0.0917 0.0523,-0.13945 0.02177,-0.0544 0.05979,-0.059 0.08715,-0.10459 0.0094,-0.0157 0.0044,-0.0393 0.01744,-0.0523 0.0082,-0.008 0.02447,0.005 0.03486,0 0.01675,-0.008 0.01318,-0.0961 0.01744,-0.10459 0.0058,-0.0116 0.02905,-0.006 0.03486,-0.0174 0.04989,-0.0998 -0.01905,-0.0681 0.05229,-0.13945 0.0041,-0.004 0.01334,0.004 0.01744,0 0.01233,-0.0123 -0.0097,-0.0378 0,-0.0523 0.0072,-0.0108 0.02905,-0.006 0.03486,-0.0174 0.01156,-0.0231 2.65e-4,-0.0789 0.01744,-0.10459 0.06471,-0.0971 0.0016,-0.0205 0.03486,-0.0872 0.0026,-0.005 0.01333,0.004 0.01744,0 0.01204,-0.012 -0.0098,-0.0549 0,-0.0697 0.03175,-0.0476 0.05541,-0.0918 0.08716,-0.13945 0.0098,-0.0148 -0.01204,-0.0577 0,-0.0697 0.0041,-0.004 0.01484,0.005 0.01744,0 0.0334,-0.0668 -0.02567,-0.23676 0,-0.31376 0.0066,-0.0199 0.02824,-0.0324 0.03486,-0.0523 0.01103,-0.0331 -0.0031,-0.0699 0,-0.10459 0.03252,-0.35767 -0.01011,0.009 0.0523,-0.20917 0.02371,-0.083 0,-0.21117 0,-0.29633"
               id="path2010" />
            <path
               id="path2012"
               style="fill:none;stroke:#000000;stroke-width:0.999999px;stroke-linecap:butt;stroke-linejoin:miter;stroke-opacity:1"
               transform="scale(0.26458333)"
               d="m 194.74609,802.63477 0.39453,1.36914 c 0.0291,-0.24823 0.0676,-0.50924 0,-0.64453 -0.022,-0.0431 -0.11536,-0.018 -0.13085,-0.0645 -0.13738,-0.41236 -0.0254,-0.3566 0.0254,-0.31445 -0.0354,-0.0384 -0.12005,-0.13443 -0.28907,-0.3457 z m 0.39453,1.36914 c -0.0215,0.18369 -0.0385,0.36106 0,0.47656 0.0401,0.12057 0.16226,0.26535 0.19922,0.39453 0.0419,0.14665 -0.006,0.45224 0.0645,0.59375 0.0219,0.0438 0.10556,0.0254 0.13281,0.0644 0.038,0.0571 -0.0219,0.26432 0,0.33008 0.0417,0.12517 0.0589,0.17216 0.0703,0.19727 h 0.12696 z m 0.41602,2.71679 c -0.008,0.0434 -0.0159,0.0869 -0.0195,0.13086 -0.004,0.0439 0.10629,0.0378 0.13086,0 0.0247,-0.0368 0.0118,-0.0842 0.004,-0.13086 z m -5.26367,15.88868 c 0.006,-5.2e-4 0.001,0.0137 -0.006,0.0312 0.001,-0.0104 0.003,-0.0217 0.006,-0.0312 z m -0.006,0.0332 c -0.001,0.0111 -0.003,0.0226 -0.01,0.0312 -0.007,0.009 3.1e-4,-0.011 0.01,-0.0312 z" />
            <path
               style="fill:none;stroke:#000000;stroke-width:0.264583px;stroke-linecap:butt;stroke-linejoin:miter;stroke-opacity:1"
               d="m 51.509101,211.92814 -3.189904,10.49356 3.42183,-8.97685 -3.631004,8.75025"
               id="path2755" />
            <path
               style="fill:none;stroke:#000000;stroke-width:0.264583px;stroke-linecap:butt;stroke-linejoin:miter;stroke-opacity:1"
               d="m 51.421947,214.80432 -3.10275,7.61738 3.015599,-7.2165"
               id="path2757" />
            <path
               style="fill:none;stroke:#0000ff;stroke-width:0.264583px;stroke-linecap:butt;stroke-linejoin:miter;stroke-opacity:1"
               d="m 51.970982,215.33619 14.883599,1.39887 -14.883599,-1.39887 15.697094,1.00444"
               id="path3072" />
            <path
               style="fill:#0000ff;fill-opacity:1;fill-rule:evenodd;stroke:#0000ff;stroke-width:0.880352;stroke-opacity:1"
               d="m 222.48313,817.69399 c -15.74924,-1.27181 -28.64938,-2.32676 -28.66696,-2.34435 -0.0418,-0.0418 0.23004,-0.69981 0.40032,-0.96907 0.1745,-0.27594 0.27719,-0.52665 0.27719,-0.67675 0,-0.0667 0.031,-0.15227 0.0688,-0.19014 0.0379,-0.0379 0.0868,-0.101 0.10884,-0.1403 0.0357,-0.0638 0.12535,-0.0611 0.83736,0.0256 0.43855,0.0534 0.82242,0.0971 0.85304,0.0971 0.0414,0 0.0477,0.11255 0.0248,0.43959 l -0.0309,0.4396 0.19872,0.0272 c 0.10929,0.0149 4.66392,0.44571 10.12139,0.95727 5.45747,0.51156 11.92467,1.11833 14.37157,1.34838 2.44689,0.23005 6.36704,0.59817 8.71145,0.81804 3.50941,0.32912 5.80178,0.58044 12.97401,1.4224 4.7913,0.56245 8.75338,1.03033 8.80462,1.03973 0.43083,0.079 -3.94297,-0.26637 -29.05426,-2.2942 z"
               id="path4684"
               transform="scale(0.26458333)" />
          </g>
        </g>
      </g>
      <g
         aria-label="Valdas"
         id="text12754"
         style="font-size:14.5702px;font-family:'Century Gothic';-inkscape-font-specification:'Century Gothic, Normal';stroke-width:0.364257">
        <path
           style="color:#000000;-inkscape-font-specification:'Century Gothic, Normal';fill:#000000;-inkscape-stroke:none"
           d="m 55.992016,209.2311 h 1.138297 l 3.464691,8.08902 3.52872,-8.08902 h 1.138297 l -4.553187,10.46522 h -0.22766 z"
           id="path1169" />
        <path
           style="color:#000000;-inkscape-font-specification:'Century Gothic, Normal';fill:#000000;-inkscape-stroke:none"
           d="m 74.567598,211.9559 v 7.74042 h -0.981781 v -1.33038 q -0.626063,0.76123 -1.408643,1.14541 -0.775464,0.38417 -1.70033,0.38417 -1.643417,0 -2.810171,-1.1881 -1.15964,-1.19521 -1.15964,-2.90265 0,-1.67188 1.173869,-2.85997 1.173868,-1.1881 2.824399,-1.1881 0.953324,0 1.721674,0.40552 0.775465,0.40552 1.358842,1.21655 v -1.42287 z m -3.984039,0.76124 q -0.83238,0 -1.536701,0.41263 -0.704321,0.40552 -1.124068,1.14541 -0.412633,0.73989 -0.412633,1.56516 0,0.81815 0.419747,1.56516 0.419747,0.747 1.124068,1.16675 0.711436,0.41263 1.522473,0.41263 0.81815,0 1.550929,-0.41263 0.732779,-0.41263 1.124068,-1.11695 0.398404,-0.70432 0.398404,-1.5865 0,-1.34462 -0.889294,-2.24814 -0.88218,-0.90352 -2.176993,-0.90352 z"
           id="path1171" />
        <path
           style="color:#000000;-inkscape-font-specification:'Century Gothic, Normal';fill:#000000;-inkscape-stroke:none"
           d="m 76.659218,208.96787 h 0.99601 v 10.72845 h -0.99601 z"
           id="path1173" />
        <path
           style="color:#000000;-inkscape-font-specification:'Century Gothic, Normal';fill:#000000;-inkscape-stroke:none"
           d="m 87.451695,208.96787 v 10.72845 h -0.981781 v -1.33038 q -0.626063,0.76123 -1.408643,1.14541 -0.775464,0.38417 -1.70033,0.38417 -1.643417,0 -2.810171,-1.1881 -1.15964,-1.19521 -1.15964,-2.90265 0,-1.67188 1.173869,-2.85997 1.173868,-1.1881 2.824399,-1.1881 0.953324,0 1.721674,0.40552 0.775465,0.40552 1.358842,1.21655 v -4.4109 z m -3.984039,3.74927 q -0.83238,0 -1.536701,0.41263 -0.704321,0.40552 -1.124068,1.14541 -0.412633,0.73989 -0.412633,1.56516 0,0.81815 0.419747,1.56516 0.419747,0.747 1.124068,1.16675 0.711436,0.41263 1.522472,0.41263 0.818151,0 1.55093,-0.41263 0.732779,-0.41263 1.124068,-1.11695 0.398404,-0.70432 0.398404,-1.5865 0,-1.34462 -0.889294,-2.24814 -0.88218,-0.90352 -2.176993,-0.90352 z"
           id="path1175" />
        <path
           style="color:#000000;-inkscape-font-specification:'Century Gothic, Normal';fill:#000000;-inkscape-stroke:none"
           d="m 97.418908,211.9559 v 7.74042 h -0.981781 v -1.33038 q -0.626064,0.76123 -1.408643,1.14541 -0.775464,0.38417 -1.700331,0.38417 -1.643416,0 -2.81017,-1.1881 -1.15964,-1.19521 -1.15964,-2.90265 0,-1.67188 1.173869,-2.85997 1.173868,-1.1881 2.824399,-1.1881 0.953323,0 1.721674,0.40552 0.775464,0.40552 1.358842,1.21655 v -1.42287 z m -3.984039,0.76124 q -0.83238,0 -1.536701,0.41263 -0.704321,0.40552 -1.124068,1.14541 -0.412633,0.73989 -0.412633,1.56516 0,0.81815 0.419747,1.56516 0.419747,0.747 1.124068,1.16675 0.711436,0.41263 1.522472,0.41263 0.818151,0 1.55093,-0.41263 0.732778,-0.41263 1.124068,-1.11695 0.398404,-0.70432 0.398404,-1.5865 0,-1.34462 -0.889295,-2.24814 -0.88218,-0.90352 -2.176992,-0.90352 z"
           id="path1177" />
        <path
           style="color:#000000;-inkscape-font-specification:'Century Gothic, Normal';fill:#000000;-inkscape-stroke:none"
           d="m 103.55148,212.80251 -0.64029,0.66163 q -0.79681,-0.77546 -1.55804,-0.77546 -0.48378,0 -0.83238,0.32015 -0.34149,0.32014 -0.34149,0.747 0,0.37706 0.28457,0.71855 0.28458,0.34861 1.19521,0.81815 1.10984,0.57627 1.50825,1.10984 0.39129,0.54069 0.39129,1.21656 0,0.95332 -0.66875,1.61496 -0.66875,0.66163 -1.67188,0.66163 -0.66875,0 -1.28058,-0.29169 -0.60472,-0.29169 -1.003124,-0.80392 l 0.626063,-0.71143 q 0.761241,0.86083 1.614961,0.86083 0.5976,0 1.01735,-0.38417 0.41975,-0.38418 0.41975,-0.90353 0,-0.42686 -0.27746,-0.76123 -0.27746,-0.32726 -1.25213,-0.82527 -1.04581,-0.54069 -1.42287,-1.06715 -0.377061,-0.52646 -0.377061,-1.20233 0,-0.88218 0.597606,-1.46555 0.604725,-0.58338 1.522475,-0.58338 1.06715,0 2.14853,1.04581 z"
           id="path1179" />
      </g>
    </g>
  </g>
  <script
     id="mesh_polyfill"
     type="text/javascript">
!function(){const t=&quot;http://www.w3.org/2000/svg&quot;,e=&quot;http://www.w3.org/1999/xlink&quot;,s=&quot;http://www.w3.org/1999/xhtml&quot;,r=2;if(document.createElementNS(t,&quot;meshgradient&quot;).x)return;const n=(t,e,s,r)=&gt;{let n=new x(.5*(e.x+s.x),.5*(e.y+s.y)),o=new x(.5*(t.x+e.x),.5*(t.y+e.y)),i=new x(.5*(s.x+r.x),.5*(s.y+r.y)),a=new x(.5*(n.x+o.x),.5*(n.y+o.y)),h=new x(.5*(n.x+i.x),.5*(n.y+i.y)),l=new x(.5*(a.x+h.x),.5*(a.y+h.y));return[[t,o,a,l],[l,h,i,r]]},o=t=&gt;{let e=t[0].distSquared(t[1]),s=t[2].distSquared(t[3]),r=.25*t[0].distSquared(t[2]),n=.25*t[1].distSquared(t[3]),o=e&gt;s?e:s,i=r&gt;n?r:n;return 18*(o&gt;i?o:i)},i=(t,e)=&gt;Math.sqrt(t.distSquared(e)),a=(t,e)=&gt;t.scale(2/3).add(e.scale(1/3)),h=t=&gt;{let e,s,r,n,o,i,a,h=new g;return t.match(/(\w+\(\s*[^)]+\))+/g).forEach(t=&gt;{let l=t.match(/[\w.-]+/g),d=l.shift();switch(d){case&quot;translate&quot;:2===l.length?e=new g(1,0,0,1,l[0],l[1]):(console.error(&quot;mesh.js: translate does not have 2 arguments!&quot;),e=new g(1,0,0,1,0,0)),h=h.append(e);break;case&quot;scale&quot;:1===l.length?s=new g(l[0],0,0,l[0],0,0):2===l.length?s=new g(l[0],0,0,l[1],0,0):(console.error(&quot;mesh.js: scale does not have 1 or 2 arguments!&quot;),s=new g(1,0,0,1,0,0)),h=h.append(s);break;case&quot;rotate&quot;:if(3===l.length&amp;&amp;(e=new g(1,0,0,1,l[1],l[2]),h=h.append(e)),l[0]){r=l[0]*Math.PI/180;let t=Math.cos(r),e=Math.sin(r);Math.abs(t)&lt;1e-16&amp;&amp;(t=0),Math.abs(e)&lt;1e-16&amp;&amp;(e=0),a=new g(t,e,-e,t,0,0),h=h.append(a)}else console.error(&quot;math.js: No argument to rotate transform!&quot;);3===l.length&amp;&amp;(e=new g(1,0,0,1,-l[1],-l[2]),h=h.append(e));break;case&quot;skewX&quot;:l[0]?(r=l[0]*Math.PI/180,n=Math.tan(r),o=new g(1,0,n,1,0,0),h=h.append(o)):console.error(&quot;math.js: No argument to skewX transform!&quot;);break;case&quot;skewY&quot;:l[0]?(r=l[0]*Math.PI/180,n=Math.tan(r),i=new g(1,n,0,1,0,0),h=h.append(i)):console.error(&quot;math.js: No argument to skewY transform!&quot;);break;case&quot;matrix&quot;:6===l.length?h=h.append(new g(...l)):console.error(&quot;math.js: Incorrect number of arguments for matrix!&quot;);break;default:console.error(&quot;mesh.js: Unhandled transform type: &quot;+d)}}),h},l=t=&gt;{let e=[],s=t.split(/[ ,]+/);for(let t=0,r=s.length-1;t&lt;r;t+=2)e.push(new x(parseFloat(s[t]),parseFloat(s[t+1])));return e},d=(t,e)=&gt;{for(let s in e)t.setAttribute(s,e[s])},c=(t,e,s,r,n)=&gt;{let o,i,a=[0,0,0,0];for(let h=0;h&lt;3;++h)e[h]&lt;t[h]&amp;&amp;e[h]&lt;s[h]||t[h]&lt;e[h]&amp;&amp;s[h]&lt;e[h]?a[h]=0:(a[h]=.5*((e[h]-t[h])/r+(s[h]-e[h])/n),o=Math.abs(3*(e[h]-t[h])/r),i=Math.abs(3*(s[h]-e[h])/n),a[h]&gt;o?a[h]=o:a[h]&gt;i&amp;&amp;(a[h]=i));return a},u=[[1,0,0,0,0,0,0,0,0,0,0,0,0,0,0,0],[0,0,0,0,1,0,0,0,0,0,0,0,0,0,0,0],[-3,3,0,0,-2,-1,0,0,0,0,0,0,0,0,0,0],[2,-2,0,0,1,1,0,0,0,0,0,0,0,0,0,0],[0,0,0,0,0,0,0,0,1,0,0,0,0,0,0,0],[0,0,0,0,0,0,0,0,0,0,0,0,1,0,0,0],[0,0,0,0,0,0,0,0,-3,3,0,0,-2,-1,0,0],[0,0,0,0,0,0,0,0,2,-2,0,0,1,1,0,0],[-3,0,3,0,0,0,0,0,-2,0,-1,0,0,0,0,0],[0,0,0,0,-3,0,3,0,0,0,0,0,-2,0,-1,0],[9,-9,-9,9,6,3,-6,-3,6,-6,3,-3,4,2,2,1],[-6,6,6,-6,-3,-3,3,3,-4,4,-2,2,-2,-2,-1,-1],[2,0,-2,0,0,0,0,0,1,0,1,0,0,0,0,0],[0,0,0,0,2,0,-2,0,0,0,0,0,1,0,1,0],[-6,6,6,-6,-4,-2,4,2,-3,3,-3,3,-2,-1,-2,-1],[4,-4,-4,4,2,2,-2,-2,2,-2,2,-2,1,1,1,1]],f=t=&gt;{let e=[];for(let s=0;s&lt;16;++s){e[s]=0;for(let r=0;r&lt;16;++r)e[s]+=u[s][r]*t[r]}return e},p=(t,e,s)=&gt;{const r=e*e,n=s*s,o=e*e*e,i=s*s*s;return t[0]+t[1]*e+t[2]*r+t[3]*o+t[4]*s+t[5]*s*e+t[6]*s*r+t[7]*s*o+t[8]*n+t[9]*n*e+t[10]*n*r+t[11]*n*o+t[12]*i+t[13]*i*e+t[14]*i*r+t[15]*i*o},y=t=&gt;{let e=[],s=[],r=[];for(let s=0;s&lt;4;++s)e[s]=[],e[s][0]=n(t[0][s],t[1][s],t[2][s],t[3][s]),e[s][1]=[],e[s][1].push(...n(...e[s][0][0])),e[s][1].push(...n(...e[s][0][1])),e[s][2]=[],e[s][2].push(...n(...e[s][1][0])),e[s][2].push(...n(...e[s][1][1])),e[s][2].push(...n(...e[s][1][2])),e[s][2].push(...n(...e[s][1][3]));for(let t=0;t&lt;8;++t){s[t]=[];for(let r=0;r&lt;4;++r)s[t][r]=[],s[t][r][0]=n(e[0][2][t][r],e[1][2][t][r],e[2][2][t][r],e[3][2][t][r]),s[t][r][1]=[],s[t][r][1].push(...n(...s[t][r][0][0])),s[t][r][1].push(...n(...s[t][r][0][1])),s[t][r][2]=[],s[t][r][2].push(...n(...s[t][r][1][0])),s[t][r][2].push(...n(...s[t][r][1][1])),s[t][r][2].push(...n(...s[t][r][1][2])),s[t][r][2].push(...n(...s[t][r][1][3]))}for(let t=0;t&lt;8;++t){r[t]=[];for(let e=0;e&lt;8;++e)r[t][e]=[],r[t][e][0]=s[t][0][2][e],r[t][e][1]=s[t][1][2][e],r[t][e][2]=s[t][2][2][e],r[t][e][3]=s[t][3][2][e]}return r};class x{constructor(t,e){this.x=t||0,this.y=e||0}toString(){return`(x=${this.x}, y=${this.y})`}clone(){return new x(this.x,this.y)}add(t){return new x(this.x+t.x,this.y+t.y)}scale(t){return void 0===t.x?new x(this.x*t,this.y*t):new x(this.x*t.x,this.y*t.y)}distSquared(t){let e=this.x-t.x,s=this.y-t.y;return e*e+s*s}transform(t){let e=this.x*t.a+this.y*t.c+t.e,s=this.x*t.b+this.y*t.d+t.f;return new x(e,s)}}class g{constructor(t,e,s,r,n,o){void 0===t?(this.a=1,this.b=0,this.c=0,this.d=1,this.e=0,this.f=0):(this.a=t,this.b=e,this.c=s,this.d=r,this.e=n,this.f=o)}toString(){return`affine: ${this.a} ${this.c} ${this.e} \n       ${this.b} ${this.d} ${this.f}`}append(t){t instanceof g||console.error(&quot;mesh.js: argument to Affine.append is not affine!&quot;);let e=this.a*t.a+this.c*t.b,s=this.b*t.a+this.d*t.b,r=this.a*t.c+this.c*t.d,n=this.b*t.c+this.d*t.d,o=this.a*t.e+this.c*t.f+this.e,i=this.b*t.e+this.d*t.f+this.f;return new g(e,s,r,n,o,i)}}class w{constructor(t,e){this.nodes=t,this.colors=e}paintCurve(t,e){if(o(this.nodes)&gt;r){const s=n(...this.nodes);let r=[[],[]],o=[[],[]];for(let t=0;t&lt;4;++t)r[0][t]=this.colors[0][t],r[1][t]=(this.colors[0][t]+this.colors[1][t])/2,o[0][t]=r[1][t],o[1][t]=this.colors[1][t];let i=new w(s[0],r),a=new w(s[1],o);i.paintCurve(t,e),a.paintCurve(t,e)}else{let s=Math.round(this.nodes[0].x);if(s&gt;=0&amp;&amp;s&lt;e){let r=4*(~~this.nodes[0].y*e+s);t[r]=Math.round(this.colors[0][0]),t[r+1]=Math.round(this.colors[0][1]),t[r+2]=Math.round(this.colors[0][2]),t[r+3]=Math.round(this.colors[0][3])}}}}class m{constructor(t,e){this.nodes=t,this.colors=e}split(){let t=[[],[],[],[]],e=[[],[],[],[]],s=[[[],[]],[[],[]]],r=[[[],[]],[[],[]]];for(let s=0;s&lt;4;++s){const r=n(this.nodes[0][s],this.nodes[1][s],this.nodes[2][s],this.nodes[3][s]);t[0][s]=r[0][0],t[1][s]=r[0][1],t[2][s]=r[0][2],t[3][s]=r[0][3],e[0][s]=r[1][0],e[1][s]=r[1][1],e[2][s]=r[1][2],e[3][s]=r[1][3]}for(let t=0;t&lt;4;++t)s[0][0][t]=this.colors[0][0][t],s[0][1][t]=this.colors[0][1][t],s[1][0][t]=(this.colors[0][0][t]+this.colors[1][0][t])/2,s[1][1][t]=(this.colors[0][1][t]+this.colors[1][1][t])/2,r[0][0][t]=s[1][0][t],r[0][1][t]=s[1][1][t],r[1][0][t]=this.colors[1][0][t],r[1][1][t]=this.colors[1][1][t];return[new m(t,s),new m(e,r)]}paint(t,e){let s,n=!1;for(let t=0;t&lt;4;++t)if((s=o([this.nodes[0][t],this.nodes[1][t],this.nodes[2][t],this.nodes[3][t]]))&gt;r){n=!0;break}if(n){let s=this.split();s[0].paint(t,e),s[1].paint(t,e)}else{new w([...this.nodes[0]],[...this.colors[0]]).paintCurve(t,e)}}}class b{constructor(t){this.readMesh(t),this.type=t.getAttribute(&quot;type&quot;)||&quot;bilinear&quot;}readMesh(t){let e=[[]],s=[[]],r=Number(t.getAttribute(&quot;x&quot;)),n=Number(t.getAttribute(&quot;y&quot;));e[0][0]=new x(r,n);let o=t.children;for(let t=0,r=o.length;t&lt;r;++t){e[3*t+1]=[],e[3*t+2]=[],e[3*t+3]=[],s[t+1]=[];let r=o[t].children;for(let n=0,o=r.length;n&lt;o;++n){let o=r[n].children;for(let r=0,i=o.length;r&lt;i;++r){let i=r;0!==t&amp;&amp;++i;let h,d=o[r].getAttribute(&quot;path&quot;),c=&quot;l&quot;;null!=d&amp;&amp;(c=(h=d.match(/\s*([lLcC])\s*(.*)/))[1]);let u=l(h[2]);switch(c){case&quot;l&quot;:0===i?(e[3*t][3*n+3]=u[0].add(e[3*t][3*n]),e[3*t][3*n+1]=a(e[3*t][3*n],e[3*t][3*n+3]),e[3*t][3*n+2]=a(e[3*t][3*n+3],e[3*t][3*n])):1===i?(e[3*t+3][3*n+3]=u[0].add(e[3*t][3*n+3]),e[3*t+1][3*n+3]=a(e[3*t][3*n+3],e[3*t+3][3*n+3]),e[3*t+2][3*n+3]=a(e[3*t+3][3*n+3],e[3*t][3*n+3])):2===i?(0===n&amp;&amp;(e[3*t+3][3*n+0]=u[0].add(e[3*t+3][3*n+3])),e[3*t+3][3*n+1]=a(e[3*t+3][3*n],e[3*t+3][3*n+3]),e[3*t+3][3*n+2]=a(e[3*t+3][3*n+3],e[3*t+3][3*n])):(e[3*t+1][3*n]=a(e[3*t][3*n],e[3*t+3][3*n]),e[3*t+2][3*n]=a(e[3*t+3][3*n],e[3*t][3*n]));break;case&quot;L&quot;:0===i?(e[3*t][3*n+3]=u[0],e[3*t][3*n+1]=a(e[3*t][3*n],e[3*t][3*n+3]),e[3*t][3*n+2]=a(e[3*t][3*n+3],e[3*t][3*n])):1===i?(e[3*t+3][3*n+3]=u[0],e[3*t+1][3*n+3]=a(e[3*t][3*n+3],e[3*t+3][3*n+3]),e[3*t+2][3*n+3]=a(e[3*t+3][3*n+3],e[3*t][3*n+3])):2===i?(0===n&amp;&amp;(e[3*t+3][3*n+0]=u[0]),e[3*t+3][3*n+1]=a(e[3*t+3][3*n],e[3*t+3][3*n+3]),e[3*t+3][3*n+2]=a(e[3*t+3][3*n+3],e[3*t+3][3*n])):(e[3*t+1][3*n]=a(e[3*t][3*n],e[3*t+3][3*n]),e[3*t+2][3*n]=a(e[3*t+3][3*n],e[3*t][3*n]));break;case&quot;c&quot;:0===i?(e[3*t][3*n+1]=u[0].add(e[3*t][3*n]),e[3*t][3*n+2]=u[1].add(e[3*t][3*n]),e[3*t][3*n+3]=u[2].add(e[3*t][3*n])):1===i?(e[3*t+1][3*n+3]=u[0].add(e[3*t][3*n+3]),e[3*t+2][3*n+3]=u[1].add(e[3*t][3*n+3]),e[3*t+3][3*n+3]=u[2].add(e[3*t][3*n+3])):2===i?(e[3*t+3][3*n+2]=u[0].add(e[3*t+3][3*n+3]),e[3*t+3][3*n+1]=u[1].add(e[3*t+3][3*n+3]),0===n&amp;&amp;(e[3*t+3][3*n+0]=u[2].add(e[3*t+3][3*n+3]))):(e[3*t+2][3*n]=u[0].add(e[3*t+3][3*n]),e[3*t+1][3*n]=u[1].add(e[3*t+3][3*n]));break;case&quot;C&quot;:0===i?(e[3*t][3*n+1]=u[0],e[3*t][3*n+2]=u[1],e[3*t][3*n+3]=u[2]):1===i?(e[3*t+1][3*n+3]=u[0],e[3*t+2][3*n+3]=u[1],e[3*t+3][3*n+3]=u[2]):2===i?(e[3*t+3][3*n+2]=u[0],e[3*t+3][3*n+1]=u[1],0===n&amp;&amp;(e[3*t+3][3*n+0]=u[2])):(e[3*t+2][3*n]=u[0],e[3*t+1][3*n]=u[1]);break;default:console.error(&quot;mesh.js: &quot;+c+&quot; invalid path type.&quot;)}if(0===t&amp;&amp;0===n||r&gt;0){let e=window.getComputedStyle(o[r]).stopColor.match(/^rgb\s*\(\s*(\d+)\s*,\s*(\d+)\s*,\s*(\d+)\s*\)$/i),a=window.getComputedStyle(o[r]).stopOpacity,h=255;a&amp;&amp;(h=Math.floor(255*a)),e&amp;&amp;(0===i?(s[t][n]=[],s[t][n][0]=Math.floor(e[1]),s[t][n][1]=Math.floor(e[2]),s[t][n][2]=Math.floor(e[3]),s[t][n][3]=h):1===i?(s[t][n+1]=[],s[t][n+1][0]=Math.floor(e[1]),s[t][n+1][1]=Math.floor(e[2]),s[t][n+1][2]=Math.floor(e[3]),s[t][n+1][3]=h):2===i?(s[t+1][n+1]=[],s[t+1][n+1][0]=Math.floor(e[1]),s[t+1][n+1][1]=Math.floor(e[2]),s[t+1][n+1][2]=Math.floor(e[3]),s[t+1][n+1][3]=h):3===i&amp;&amp;(s[t+1][n]=[],s[t+1][n][0]=Math.floor(e[1]),s[t+1][n][1]=Math.floor(e[2]),s[t+1][n][2]=Math.floor(e[3]),s[t+1][n][3]=h))}}e[3*t+1][3*n+1]=new x,e[3*t+1][3*n+2]=new x,e[3*t+2][3*n+1]=new x,e[3*t+2][3*n+2]=new x,e[3*t+1][3*n+1].x=(-4*e[3*t][3*n].x+6*(e[3*t][3*n+1].x+e[3*t+1][3*n].x)+-2*(e[3*t][3*n+3].x+e[3*t+3][3*n].x)+3*(e[3*t+3][3*n+1].x+e[3*t+1][3*n+3].x)+-1*e[3*t+3][3*n+3].x)/9,e[3*t+1][3*n+2].x=(-4*e[3*t][3*n+3].x+6*(e[3*t][3*n+2].x+e[3*t+1][3*n+3].x)+-2*(e[3*t][3*n].x+e[3*t+3][3*n+3].x)+3*(e[3*t+3][3*n+2].x+e[3*t+1][3*n].x)+-1*e[3*t+3][3*n].x)/9,e[3*t+2][3*n+1].x=(-4*e[3*t+3][3*n].x+6*(e[3*t+3][3*n+1].x+e[3*t+2][3*n].x)+-2*(e[3*t+3][3*n+3].x+e[3*t][3*n].x)+3*(e[3*t][3*n+1].x+e[3*t+2][3*n+3].x)+-1*e[3*t][3*n+3].x)/9,e[3*t+2][3*n+2].x=(-4*e[3*t+3][3*n+3].x+6*(e[3*t+3][3*n+2].x+e[3*t+2][3*n+3].x)+-2*(e[3*t+3][3*n].x+e[3*t][3*n+3].x)+3*(e[3*t][3*n+2].x+e[3*t+2][3*n].x)+-1*e[3*t][3*n].x)/9,e[3*t+1][3*n+1].y=(-4*e[3*t][3*n].y+6*(e[3*t][3*n+1].y+e[3*t+1][3*n].y)+-2*(e[3*t][3*n+3].y+e[3*t+3][3*n].y)+3*(e[3*t+3][3*n+1].y+e[3*t+1][3*n+3].y)+-1*e[3*t+3][3*n+3].y)/9,e[3*t+1][3*n+2].y=(-4*e[3*t][3*n+3].y+6*(e[3*t][3*n+2].y+e[3*t+1][3*n+3].y)+-2*(e[3*t][3*n].y+e[3*t+3][3*n+3].y)+3*(e[3*t+3][3*n+2].y+e[3*t+1][3*n].y)+-1*e[3*t+3][3*n].y)/9,e[3*t+2][3*n+1].y=(-4*e[3*t+3][3*n].y+6*(e[3*t+3][3*n+1].y+e[3*t+2][3*n].y)+-2*(e[3*t+3][3*n+3].y+e[3*t][3*n].y)+3*(e[3*t][3*n+1].y+e[3*t+2][3*n+3].y)+-1*e[3*t][3*n+3].y)/9,e[3*t+2][3*n+2].y=(-4*e[3*t+3][3*n+3].y+6*(e[3*t+3][3*n+2].y+e[3*t+2][3*n+3].y)+-2*(e[3*t+3][3*n].y+e[3*t][3*n+3].y)+3*(e[3*t][3*n+2].y+e[3*t+2][3*n].y)+-1*e[3*t][3*n].y)/9}}this.nodes=e,this.colors=s}paintMesh(t,e){let s=(this.nodes.length-1)/3,r=(this.nodes[0].length-1)/3;if(&quot;bilinear&quot;===this.type||s&lt;2||r&lt;2){let n;for(let o=0;o&lt;s;++o)for(let s=0;s&lt;r;++s){let r=[];for(let t=3*o,e=3*o+4;t&lt;e;++t)r.push(this.nodes[t].slice(3*s,3*s+4));let i=[];i.push(this.colors[o].slice(s,s+2)),i.push(this.colors[o+1].slice(s,s+2)),(n=new m(r,i)).paint(t,e)}}else{let n,o,a,h,l,d,u;const x=s,g=r;s++,r++;let w=new Array(s);for(let t=0;t&lt;s;++t){w[t]=new Array(r);for(let e=0;e&lt;r;++e)w[t][e]=[],w[t][e][0]=this.nodes[3*t][3*e],w[t][e][1]=this.colors[t][e]}for(let t=0;t&lt;s;++t)for(let e=0;e&lt;r;++e)0!==t&amp;&amp;t!==x&amp;&amp;(n=i(w[t-1][e][0],w[t][e][0]),o=i(w[t+1][e][0],w[t][e][0]),w[t][e][2]=c(w[t-1][e][1],w[t][e][1],w[t+1][e][1],n,o)),0!==e&amp;&amp;e!==g&amp;&amp;(n=i(w[t][e-1][0],w[t][e][0]),o=i(w[t][e+1][0],w[t][e][0]),w[t][e][3]=c(w[t][e-1][1],w[t][e][1],w[t][e+1][1],n,o));for(let t=0;t&lt;r;++t){w[0][t][2]=[],w[x][t][2]=[];for(let e=0;e&lt;4;++e)n=i(w[1][t][0],w[0][t][0]),o=i(w[x][t][0],w[x-1][t][0]),w[0][t][2][e]=n&gt;0?2*(w[1][t][1][e]-w[0][t][1][e])/n-w[1][t][2][e]:0,w[x][t][2][e]=o&gt;0?2*(w[x][t][1][e]-w[x-1][t][1][e])/o-w[x-1][t][2][e]:0}for(let t=0;t&lt;s;++t){w[t][0][3]=[],w[t][g][3]=[];for(let e=0;e&lt;4;++e)n=i(w[t][1][0],w[t][0][0]),o=i(w[t][g][0],w[t][g-1][0]),w[t][0][3][e]=n&gt;0?2*(w[t][1][1][e]-w[t][0][1][e])/n-w[t][1][3][e]:0,w[t][g][3][e]=o&gt;0?2*(w[t][g][1][e]-w[t][g-1][1][e])/o-w[t][g-1][3][e]:0}for(let s=0;s&lt;x;++s)for(let r=0;r&lt;g;++r){let n=i(w[s][r][0],w[s+1][r][0]),o=i(w[s][r+1][0],w[s+1][r+1][0]),c=i(w[s][r][0],w[s][r+1][0]),x=i(w[s+1][r][0],w[s+1][r+1][0]),g=[[],[],[],[]];for(let t=0;t&lt;4;++t){(d=[])[0]=w[s][r][1][t],d[1]=w[s+1][r][1][t],d[2]=w[s][r+1][1][t],d[3]=w[s+1][r+1][1][t],d[4]=w[s][r][2][t]*n,d[5]=w[s+1][r][2][t]*n,d[6]=w[s][r+1][2][t]*o,d[7]=w[s+1][r+1][2][t]*o,d[8]=w[s][r][3][t]*c,d[9]=w[s+1][r][3][t]*x,d[10]=w[s][r+1][3][t]*c,d[11]=w[s+1][r+1][3][t]*x,d[12]=0,d[13]=0,d[14]=0,d[15]=0,u=f(d);for(let e=0;e&lt;9;++e){g[t][e]=[];for(let s=0;s&lt;9;++s)g[t][e][s]=p(u,e/8,s/8),g[t][e][s]&gt;255?g[t][e][s]=255:g[t][e][s]&lt;0&amp;&amp;(g[t][e][s]=0)}}h=[];for(let t=3*s,e=3*s+4;t&lt;e;++t)h.push(this.nodes[t].slice(3*r,3*r+4));l=y(h);for(let s=0;s&lt;8;++s)for(let r=0;r&lt;8;++r)(a=new m(l[s][r],[[[g[0][s][r],g[1][s][r],g[2][s][r],g[3][s][r]],[g[0][s][r+1],g[1][s][r+1],g[2][s][r+1],g[3][s][r+1]]],[[g[0][s+1][r],g[1][s+1][r],g[2][s+1][r],g[3][s+1][r]],[g[0][s+1][r+1],g[1][s+1][r+1],g[2][s+1][r+1],g[3][s+1][r+1]]]])).paint(t,e)}}}transform(t){if(t instanceof x)for(let e=0,s=this.nodes.length;e&lt;s;++e)for(let s=0,r=this.nodes[0].length;s&lt;r;++s)this.nodes[e][s]=this.nodes[e][s].add(t);else if(t instanceof g)for(let e=0,s=this.nodes.length;e&lt;s;++e)for(let s=0,r=this.nodes[0].length;s&lt;r;++s)this.nodes[e][s]=this.nodes[e][s].transform(t)}scale(t){for(let e=0,s=this.nodes.length;e&lt;s;++e)for(let s=0,r=this.nodes[0].length;s&lt;r;++s)this.nodes[e][s]=this.nodes[e][s].scale(t)}}document.querySelectorAll(&quot;rect,circle,ellipse,path,text&quot;).forEach((r,n)=&gt;{let o=r.getAttribute(&quot;id&quot;);o||(o=&quot;patchjs_shape&quot;+n,r.setAttribute(&quot;id&quot;,o));const i=r.style.fill.match(/^url\(\s*&quot;?\s*#([^\s&quot;]+)&quot;?\s*\)/),a=r.style.stroke.match(/^url\(\s*&quot;?\s*#([^\s&quot;]+)&quot;?\s*\)/);if(i&amp;&amp;i[1]){const a=document.getElementById(i[1]);if(a&amp;&amp;&quot;meshgradient&quot;===a.nodeName){const i=r.getBBox();let l=document.createElementNS(s,&quot;canvas&quot;);d(l,{width:i.width,height:i.height});const c=l.getContext(&quot;2d&quot;);let u=c.createImageData(i.width,i.height);const f=new b(a);&quot;objectBoundingBox&quot;===a.getAttribute(&quot;gradientUnits&quot;)&amp;&amp;f.scale(new x(i.width,i.height));const p=a.getAttribute(&quot;gradientTransform&quot;);null!=p&amp;&amp;f.transform(h(p)),&quot;userSpaceOnUse&quot;===a.getAttribute(&quot;gradientUnits&quot;)&amp;&amp;f.transform(new x(-i.x,-i.y)),f.paintMesh(u.data,l.width),c.putImageData(u,0,0);const y=document.createElementNS(t,&quot;image&quot;);d(y,{width:i.width,height:i.height,x:i.x,y:i.y});let g=l.toDataURL();y.setAttributeNS(e,&quot;xlink:href&quot;,g),r.parentNode.insertBefore(y,r),r.style.fill=&quot;none&quot;;const w=document.createElementNS(t,&quot;use&quot;);w.setAttributeNS(e,&quot;xlink:href&quot;,&quot;#&quot;+o);const m=&quot;patchjs_clip&quot;+n,M=document.createElementNS(t,&quot;clipPath&quot;);M.setAttribute(&quot;id&quot;,m),M.appendChild(w),r.parentElement.insertBefore(M,r),y.setAttribute(&quot;clip-path&quot;,&quot;url(#&quot;+m+&quot;)&quot;),u=null,l=null,g=null}}if(a&amp;&amp;a[1]){const o=document.getElementById(a[1]);if(o&amp;&amp;&quot;meshgradient&quot;===o.nodeName){const i=parseFloat(r.style.strokeWidth.slice(0,-2))*(parseFloat(r.style.strokeMiterlimit)||parseFloat(r.getAttribute(&quot;stroke-miterlimit&quot;))||1),a=r.getBBox(),l=Math.trunc(a.width+i),c=Math.trunc(a.height+i),u=Math.trunc(a.x-i/2),f=Math.trunc(a.y-i/2);let p=document.createElementNS(s,&quot;canvas&quot;);d(p,{width:l,height:c});const y=p.getContext(&quot;2d&quot;);let g=y.createImageData(l,c);const w=new b(o);&quot;objectBoundingBox&quot;===o.getAttribute(&quot;gradientUnits&quot;)&amp;&amp;w.scale(new x(l,c));const m=o.getAttribute(&quot;gradientTransform&quot;);null!=m&amp;&amp;w.transform(h(m)),&quot;userSpaceOnUse&quot;===o.getAttribute(&quot;gradientUnits&quot;)&amp;&amp;w.transform(new x(-u,-f)),w.paintMesh(g.data,p.width),y.putImageData(g,0,0);const M=document.createElementNS(t,&quot;image&quot;);d(M,{width:l,height:c,x:0,y:0});let S=p.toDataURL();M.setAttributeNS(e,&quot;xlink:href&quot;,S);const k=&quot;pattern_clip&quot;+n,A=document.createElementNS(t,&quot;pattern&quot;);d(A,{id:k,patternUnits:&quot;userSpaceOnUse&quot;,width:l,height:c,x:u,y:f}),A.appendChild(M),o.parentNode.appendChild(A),r.style.stroke=&quot;url(#&quot;+k+&quot;)&quot;,g=null,p=null,S=null}}})}();
</script>
</svg>
